# xmcd
#
# Track frame offsets:
#	150
#	17660
#	36520
#	55437
#	76142
#	99710
#	116132
#	128105
#	144765
#	160655
#	173592
#	195712
#	211000
#	223860
#
# Disc length: 3168 seconds
#
# Revision: 4277731241
# Processed by: cddbd v1.5.2PL0 Copyright (c) Steve Scherf et al.
# Submitted via: EZCDAudioConverter 6.0.2.1
#
DISCID=bf0c5e0e
DTITLE=Various Artist - Old Style Love Song 18
DYEAR=1900
DGENRE=Unknown
TTITLE0=Seals and Croft - Windflowers
TTITLE1=Sky Lark - Wildflowers
TTITLE2=Paul McCartney - My Love
TTITLE3=The Rolling Stones - Angie
TTITLE4=John Denver - Sunshine on My Shoulders
TTITLE5=Gordon Lightfoot - Sundown
TTITLE6=Paul Anka - (You're) Having My Baby
TTITLE7=Oliva-Newton John - I Honestly Love You
TTITLE8=Helen Reddy - Angie Baby
TTITLE9=Anne Murray - Love Song
TTITLE10=The Stylistics - You Make Me Feel Brand New
TTITLE11=Barry Manilow - Mandy
TTITLE12=Neil Sadaka - Laughter in the Rain
TTITLE13=Lobo - Don't Tell Me Goodnight
EXTD=
EXTT0=
EXTT1=
EXTT2=
EXTT3=
EXTT4=
EXTT5=
EXTT6=
EXTT7=
EXTT8=
EXTT9=
EXTT10=
EXTT11=
EXTT12=
EXTT13=
PLAYORDER=
